<?xml version="1.0" encoding="UTF-8" standalone="no"?>
<svg
   xmlns:dc="http://purl.org/dc/elements/1.1/"
   xmlns:cc="http://creativecommons.org/ns#"
   xmlns:rdf="http://www.w3.org/1999/02/22-rdf-syntax-ns#"
   xmlns:svg="http://www.w3.org/2000/svg"
   xmlns="http://www.w3.org/2000/svg"
   xmlns:sodipodi="http://sodipodi.sourceforge.net/DTD/sodipodi-0.dtd"
   xmlns:inkscape="http://www.inkscape.org/namespaces/inkscape"
   width="15.999998"
   height="14"
   viewBox="0 0 12.799998 11.2"
   version="1.1"
   id="svg2"
   inkscape:version="0.91 r13725"
   sodipodi:docname="dislike.svg">
  <metadata
     id="metadata34">
    <rdf:RDF>
      <cc:Work
         rdf:about="">
        <dc:format>image/svg+xml</dc:format>
        <dc:type
           rdf:resource="http://purl.org/dc/dcmitype/StillImage" />
        <dc:title></dc:title>
      </cc:Work>
    </rdf:RDF>
  </metadata>
  <defs
     id="defs32" />
  <sodipodi:namedview
     pagecolor="#ffffff"
     bordercolor="#666666"
     borderopacity="1"
     objecttolerance="10"
     gridtolerance="10"
     guidetolerance="10"
     inkscape:pageopacity="0"
     inkscape:pageshadow="2"
     inkscape:window-width="1024"
     inkscape:window-height="576"
     id="namedview30"
     showgrid="false"
     fit-margin-top="0"
     fit-margin-left="0"
     fit-margin-right="0"
     fit-margin-bottom="0"
     units="px"
     inkscape:zoom="29.571429"
     inkscape:cx="7.7608697"
     inkscape:cy="7"
     inkscape:window-x="0"
     inkscape:window-y="4"
     inkscape:window-maximized="1"
     inkscape:current-layer="svg2" />
  <path
     d="M 12.799997,0 0,0 l 0,11.2 12.799997,0 0,-5.3144 c -0.06912,0.18928 -0.252343,0.34608 -0.45696,0.33619 -0.731794,-0.004 -1.463588,-3.8e-4 -2.1952,-0.005 -0.6079991,-0.008 -1.2161818,-0.002 -1.8243645,-0.006 -0.022308,-0.0278 -0.0448,-0.0554 -0.067474,-0.0829 -0.3176228,0.29792 -0.5703312,0.65875 -0.811154,1.02163 -0.34944,0.5361 -0.6617599,1.09741 -0.9373255,1.67645 -0.019932,0.0416 -0.038035,0.0855 -0.037668,0.13272 0.0128,0.52285 0.012252,1.04608 0.019565,1.56912 -0.00293,0.0644 0.014628,0.13795 -0.028343,0.19264 -0.125257,0.18536 -0.3088456,0.32853 -0.5171198,0.40301 -0.2836113,0.10304 -0.5977598,0.0898 -0.884114,0.005 C 4.9497591,11.09426 4.8405935,11.05066 4.7456906,10.98323 4.6837016,10.93953 4.6476796,10.86992 4.6112907,10.80478 4.4295308,10.47718 4.2737365,10.13427 4.1495765,9.7796 4.0607075,9.51976 3.9859194,9.25246 3.9594052,8.97787 3.9323422,8.5575 3.9873822,8.136 4.0806394,7.72702 4.1311084,7.49499 4.1976679,7.26688 4.2450279,7.03411 c -1.0250968,-5.6e-4 -2.0501942,0 -3.0752902,-1.9e-4 -0.1152,-0.001 -0.232778,0.008 -0.345783,-0.0218 C 0.5727087,6.94902 0.3615087,6.76554 0.2320457,6.54023 0.0938057,6.29906 0.0479087,6.00244 0.1162977,5.73084 0.1812177,5.44674 0.3602297,5.205 0.5723427,5.01628 0.4750627,4.83746 0.4269717,4.62932 0.4538517,4.4253 c 0.03602,-0.28616 0.184869,-0.54955 0.38912,-0.74555 0.02231,-0.0263 0.06473,-0.0519 0.04498,-0.0918 -0.04462,-0.16501 -0.07589,-0.336 -0.06254,-0.50792 0.01335,-0.23819 0.101303,-0.47115 0.2496,-0.65557 0.04773,-0.0652 0.110994,-0.11555 0.163291,-0.17622 0.0024,-0.0538 -0.01408,-0.10565 -0.02285,-0.1581 -0.06821,-0.36064 0.0093,-0.75115 0.228388,-1.04515 0.248686,-0.33693 0.644206,-0.57325 1.061485,-0.58613 1.5541032,-3.8e-4 3.1083885,0 4.662491,-1.9e-4 0.1205028,7.5e-4 0.2446628,-0.01 0.3609599,0.0297 C 7.7260794,0.55487 7.8992451,0.68306 8.038765,0.83856 8.041695,0.7148 8.050102,0.59122 8.052296,0.46728 8.049366,0.2668 8.2386273,0.10104 8.4282501,0.10066 c 1.146514,-1.8e-4 2.2928449,3.8e-4 3.4391759,-3.7e-4 0.08722,0.002 0.178834,-0.0103 0.26112,0.0261 0.121234,0.0538 0.215223,0.16315 0.261851,0.28822 0.03255,0.10154 0.02871,0.21037 0.03803,0.31584 0.125074,1.63837 0.244662,3.2773 0.371565,4.91568 l 0,-5.64613 z"
     id="path4"
     inkscape:connector-curvature="0"
     style="fill:#ffffff" />
  <path
     d="m 12.128545,0.12637 c -0.08229,-0.0364 -0.173897,-0.0243 -0.26112,-0.0261 -1.146331,7.5e-4 -2.2926614,1.9e-4 -3.4391754,3.7e-4 C 8.2386268,0.10102 8.0493697,0.26678 8.0522955,0.46726 8.0501055,0.5912 8.0416895,0.71478 8.0387645,0.83854 7.8992446,0.68304 7.7260788,0.5548 7.5287761,0.48835 7.4124789,0.44875 7.2883189,0.45945 7.1678162,0.45865 5.6137137,0.45884 4.0594283,0.45846 2.5053251,0.45884 c -0.417279,0.0129 -0.812799,0.2492 -1.061485,0.58613 -0.219062,0.294 -0.296594,0.68451 -0.228388,1.04515 0.0088,0.0524 0.02523,0.10434 0.02285,0.1581 -0.0523,0.0607 -0.115565,0.11107 -0.163291,0.17622 -0.148297,0.18442 -0.236252,0.41738 -0.2496,0.65557 -0.01335,0.17192 0.01792,0.34291 0.06254,0.50792 0.01975,0.0399 -0.02268,0.0655 -0.04498,0.0918 -0.204251,0.196 -0.353097,0.45939 -0.38912,0.74555 -0.02688,0.20402 0.02121,0.41216 0.118492,0.59098 -0.212114,0.18872 -0.391132,0.43046 -0.456046,0.71456 -0.06839,0.2716 -0.02249,0.56822 0.115748,0.80939 0.129463,0.22531 0.340663,0.4088 0.591909,0.47189 0.113005,0.0301 0.230583,0.0207 0.345783,0.0218 1.025096,1.9e-4 2.0501934,-3.7e-4 3.0752903,1.9e-4 C 4.1976674,7.26686 4.1311075,7.49497 4.0806389,7.727 3.9873819,8.13598 3.9323418,8.55748 3.9594046,8.97785 c 0.026515,0.27459 0.1013028,0.54189 0.1901714,0.80173 0.12416,0.35467 0.2799542,0.69758 0.4617141,1.02518 0.036389,0.0651 0.072411,0.13477 0.1344,0.17845 0.094903,0.0674 0.2040685,0.11107 0.3141485,0.14523 0.2863543,0.0849 0.6005027,0.0982 0.8841141,-0.005 0.2082742,-0.0745 0.3918628,-0.21765 0.5171198,-0.40301 0.042972,-0.0547 0.025417,-0.12824 0.028342,-0.19264 -0.00732,-0.52304 -0.00677,-1.04627 -0.019565,-1.56912 -3.656e-4,-0.0472 0.017737,-0.0911 0.037668,-0.13272 C 6.783086,8.24712 7.0954059,7.68581 7.4448459,7.14971 7.6856687,6.78683 7.9383771,6.426 8.2559999,6.12808 c 0.022675,0.0274 0.045166,0.0551 0.067474,0.0829 0.6081827,0.004 1.2163654,-0.003 1.8243651,0.006 0.731611,0.005 1.463405,10e-4 2.195199,0.005 0.204617,0.01 0.38784,-0.1471 0.45696,-0.33638 l 0,-0.23949 C 12.673094,4.00773 12.553505,2.3688 12.428431,0.73043 12.419131,0.62496 12.422931,0.51613 12.390401,0.41459 12.343771,0.28952 12.249784,0.18013 12.128549,0.12637 Z"
     id="path6"
     inkscape:connector-curvature="0"
     style="fill:#455c91" />
  <path
     d="m 11.940203,0.58483 c -0.974994,7.4e-4 -1.9499881,0 -2.9251649,1.8e-4 -0.033463,9.4e-4 -0.067109,0.002 -0.1007544,0.003 0.00256,1.06064 0.00256,2.12109 0.00439,3.18173 0.00311,0.63933 -0.00311,1.27867 0.00585,1.91781 1.1320673,1.9e-4 2.2643193,3.8e-4 3.3963873,0 -0.115932,-1.62848 -0.243017,-3.2564 -0.362057,-4.88469 -0.0051,-0.0728 -0.01152,-0.1456 -0.01865,-0.21821 z"
     id="path8"
     inkscape:connector-curvature="0"
     style="fill:#6e7fb3" />
  <path
     d="m 11.610145,0.89787 c -0.712777,-0.007 -1.425919,-5.6e-4 -2.1386956,-0.004 -0.06656,-7.5e-4 -0.13312,0.001 -0.1994972,0.004 -0.00914,0.52155 -7.313e-4,1.04366 -0.00384,1.56539 -5.485e-4,0.80285 0.0011,1.60552 -1.828e-4,2.40837 7.314e-4,0.0422 0.00238,0.0846 0.0042,0.12694 0.8952676,0.004 1.7907196,0.005 2.6858046,-1.9e-4 -0.107886,-1.2768 -0.212663,-2.55379 -0.319086,-3.83059 -0.0068,-0.0905 -0.01061,-0.18162 -0.02871,-0.27066 z"
     id="path10"
     inkscape:connector-curvature="0"
     style="fill:#6475ab" />
  <path
     d="m 7.2413242,0.98317 c -1.3533254,-0.0157 -2.7066507,-0.006 -4.0599761,-0.009 -0.1894403,-0.002 -0.3788796,0.004 -0.5679541,-0.006 -0.07387,-0.003 -0.147931,-0.001 -0.22144,0.009 0.116846,-0.008 0.233875,7.5e-4 0.350537,0.006 0.2927543,0.0103 0.5856913,-0.004 0.8782627,0.008 -0.1596342,0.1723 -0.3285942,0.35318 -0.3929599,0.58744 -0.05632,0.18816 -0.027245,0.39574 0.065645,0.56654 0.035657,0.0715 0.088869,0.14896 0.062172,0.23296 C 3.3301928,2.44701 3.2629018,2.48469 3.213348,2.5336 2.9856913,2.73949 2.8512913,3.07531 2.9416224,3.38144 2.9664944,3.49213 3.0414624,3.58005 3.080228,3.68421 3.100525,3.75231 3.042742,3.80499 2.997394,3.84456 2.8732347,3.94704 2.7935092,4.09208 2.7243892,4.23637 c -0.08539,0.1904 -0.137143,0.4116 -0.07406,0.61712 0.0214,0.0808 0.07845,0.14336 0.117395,0.21504 0.02779,0.045 0.01755,0.10696 -0.02213,0.14112 -0.06912,0.0663 -0.147017,0.12507 -0.198949,0.20795 -0.150673,0.22288 -0.234239,0.5068 -0.184685,0.77672 0.02103,0.12749 0.0971,0.23333 0.159268,0.34253 0.128366,-0.0119 0.257098,-0.004 0.3856456,-0.007 0.6396345,0.007 1.2794515,0.005 1.9192685,0.005 0.3600455,0.007 0.7195426,0.0344 1.0794054,0.0469 0.083383,0.002 0.1773714,0.0142 0.2336914,0.0851 0.084845,0.0935 0.08064,0.23949 0.018651,0.34458 -0.3435885,0.62142 -0.684617,1.24432 -1.0294854,1.86499 -0.041326,0.0724 -0.00365,0.15605 0.010606,0.23091 0.1230629,0.53144 0.2419199,1.06418 0.3638856,1.596 0.1605485,-0.0125 0.3234742,-0.0618 0.4474513,-0.16987 0.010788,-0.56821 7.315e-4,-1.13755 0.00494,-1.70595 9.143e-4,-0.0226 0.00658,-0.0437 0.01664,-0.0635 C 6.4575961,7.79446 7.0072645,6.85441 7.6648186,5.99537 7.7112636,5.93717 7.7505786,5.8703 7.8127499,5.82774 7.9100299,5.75984 8.005847,5.68979 8.1033099,5.62222 8.1003799,4.60619 8.1020299,3.59017 8.1023956,2.57395 8.0976456,2.17878 8.1089756,1.78361 8.0980056,1.38862 8.0572286,1.37822 8.0160856,1.36922 7.9758571,1.35632 7.8293886,1.27122 7.68676,1.17824 7.5390115,1.09517 7.4453885,1.04437 7.3532287,0.97384 7.2413202,0.98186 Z"
     id="path12"
     inkscape:connector-curvature="0"
     style="fill:#edf5f7" />
  <path
     d="M 3.6207537,0.99157 C 3.3281823,0.97967 3.0352453,0.99357 2.742491,0.98357 2.625829,0.97857 2.5088,0.96977 2.391954,0.97757 2.272365,1.01177 2.167588,1.08509 2.06976,1.16125 1.928046,1.27885 1.798035,1.42016 1.726537,1.59413 c -0.06345,0.15214 -0.06034,0.33843 0.03108,0.47862 0.04041,0.0734 0.109348,0.12245 0.159268,0.18778 0.02907,0.0597 0.01939,0.14411 -0.02907,0.19115 -0.07442,0.0336 -0.155611,0.0558 -0.219977,0.10939 -0.167314,0.13085 -0.299155,0.31752 -0.346148,0.52901 -0.03437,0.14821 -1.84e-4,0.31024 0.0918,0.43027 0.03621,0.051 0.08759,0.0877 0.124891,0.13738 0.03475,0.0747 0.0042,0.17715 -0.07442,0.20832 -0.12672,0.0616 -0.247589,0.14038 -0.340481,0.2492 -0.135497,0.15064 -0.205348,0.36718 -0.162743,0.56934 0.02871,0.14466 0.09911,0.2813 0.202058,0.38546 0.05705,0.0558 0.02724,0.17062 -0.04827,0.19208 -0.216137,0.0704 -0.406126,0.23595 -0.488229,0.45454 -0.06656,0.17024 -0.06784,0.3709 0.01664,0.53498 0.09636,0.19638 0.318172,0.30016 0.527544,0.28598 0.450377,-0.001 0.900571,0.002 1.350765,1.8e-4 C 2.459075,6.42861 2.383005,6.32277 2.361977,6.19528 2.312417,5.92536 2.395987,5.64144 2.546662,5.41856 2.598592,5.33566 2.67649,5.27688 2.74561,5.21061 2.78529,5.17641 2.79553,5.11451 2.76774,5.06949 2.72879,4.99779 2.67174,4.93528 2.650346,4.85445 2.587256,4.64893 2.639016,4.42773 2.724406,4.23733 2.793526,4.09304 2.873252,3.948 2.9974113,3.84552 3.0427603,3.80592 3.100543,3.75332 3.0802453,3.68517 3.0414803,3.58101 2.9665086,3.49309 2.9416397,3.3824 2.8513117,3.07627 2.9857117,2.74045 3.2133653,2.53456 3.2629203,2.48566 3.330211,2.44796 3.3556281,2.37907 3.3823251,2.29507 3.3291131,2.2176 3.2934561,2.14611 3.2005641,1.97531 3.1714903,1.76773 3.2278111,1.57957 3.2921671,1.34475 3.4611273,1.16387 3.6207615,0.99157 Z"
     id="path14"
     inkscape:connector-curvature="0"
     style="fill:#dce4e7" />
  <path
     d="M 9.9044549,1.05504 C 9.7791979,1.01954 9.6373007,1.06584 9.5526379,1.16611 9.4597459,1.27101 9.4372551,1.4336 9.4996099,1.56035 9.5610499,1.69475 9.7097127,1.78061 9.8543527,1.76251 10.005209,1.74811 10.137049,1.62381 10.163929,1.47187 10.202509,1.29155 10.080549,1.09629 9.9044555,1.05504 Z"
     id="path16"
     inkscape:connector-curvature="0"
     style="fill:#ffffff" />
  <path
     d="m 9.9390149,1.34531 c 0.00914,-0.0433 -0.020297,-0.0782 -0.064183,-0.0737 -0.00841,0.0118 -0.017006,0.0233 -0.0256,0.0349 9.143e-4,0.01 0.00293,0.0289 0.00384,0.0386 0.013349,0.008 0.026697,0.0162 0.039862,0.0243 0.015543,-0.008 0.030903,-0.0161 0.04608,-0.0241 z"
     id="path18"
     inkscape:connector-curvature="0"
     style="fill:#000000" />
  <path
     d="m 9.7678607,1.27568 c -0.021578,0.001 -0.043154,0.003 -0.064548,0.005 -0.00201,0.0217 -0.00348,0.0435 -0.00403,0.0653 0.016092,0.008 0.032366,0.0166 0.04864,0.0246 0.015177,-0.0142 0.029806,-0.0286 0.043703,-0.0439 -0.00732,-0.0176 -0.01536,-0.0347 -0.023772,-0.0515 z"
     id="path20"
     inkscape:connector-curvature="0"
     style="fill:#000000" />
  <path
     d="m 8.444341,1.35931 c -0.1561599,-9.4e-4 -0.3123199,10e-4 -0.4684798,-0.002 0.040229,0.0129 0.081372,0.0218 0.1221485,0.0323 0.010971,0.39499 -3.657e-4,0.79016 0.00439,1.18533 -3.656e-4,1.01622 -0.00201,2.03224 9.144e-4,3.04827 0.09984,-0.0668 0.1971199,-0.13701 0.2967771,-0.20384 0.019565,-0.0161 0.049555,-0.0293 0.048091,-0.0594 0.00859,-0.15624 -0.00348,-0.31285 -5.485e-4,-0.46909 0.0053,-0.0932 0,-0.1863 -0.00201,-0.27944 0.011703,-0.61638 -0.00475,-1.23294 0.00329,-1.84912 -0.00677,-0.46779 0.00329,-0.93576 -0.00457,-1.40336 z"
     id="path22"
     inkscape:connector-curvature="0"
     style="fill:#dce4e7" />
  <path
     d="m 9.8998836,1.43005 c -0.00658,10e-4 -0.020114,0.004 -0.026697,0.005 -0.00658,0.009 -0.019748,0.0259 -0.026331,0.0345 0.00439,0.0185 0.0128,0.0357 0.02304,0.0515 0.010788,5.6e-4 0.032182,10e-4 0.042789,0.002 0.00896,-0.009 0.017737,-0.0183 0.026515,-0.0276 -7.315e-4,-0.0104 -0.00201,-0.0315 -0.00274,-0.042 -0.00914,-0.006 -0.027429,-0.0174 -0.036571,-0.023 z"
     id="path24"
     inkscape:connector-curvature="0"
     style="fill:#000000" />
  <path
     d="m 9.7634721,1.42856 c -0.026515,0.007 -0.073692,0.0108 -0.065097,0.0504 -0.00549,0.042 0.040046,0.042 0.068206,0.0456 0.00804,-0.0164 0.015909,-0.0329 0.023772,-0.0493 -0.00896,-0.0155 -0.01792,-0.031 -0.02688,-0.0467 z"
     id="path26"
     inkscape:connector-curvature="0"
     style="fill:#000000" />
  <path
     d="M 5.9055531,6.58299 C 5.5456904,6.57049 5.1861933,6.54269 4.8261477,6.53609 4.6935763,7.15377 4.5580792,7.77295 4.4951763,8.40295 c -0.013714,0.21037 -0.042789,0.42448 0.00128,0.63317 0.1000228,0.50867 0.294217,0.99213 0.5043198,1.46253 0.023223,0.0743 0.097463,0.10584 0.1607314,0.13664 0.10624,0.0512 0.2247314,0.0683 0.3413942,0.0693 C 5.380936,10.17277 5.2620789,9.64003 5.1390161,9.10859 5.1247531,9.03369 5.0870851,8.95011 5.1284101,8.87768 5.4732786,8.25701 5.814307,7.63411 6.1578956,7.01269 6.2198846,6.9076 6.2240896,6.76163 6.1392446,6.66811 6.0829246,6.59721 5.9889361,6.58541 5.9055533,6.58301 Z"
     id="path28"
     inkscape:connector-curvature="0"
     style="fill:#dce4e7" />
</svg>
