<svg id="svg" xmlns="http://www.w3.org/2000/svg" xmlns:xlink="http://www.w3.org/1999/xlink" width="400" height="342.6" viewBox="0, 0, 400,342.6"><g id="svgg"><path id="path0" d="M223.513 0.215 C 212.678 1.250,203.250 6.659,197.735 15.003 L 197.005 16.107 197.342 43.165 L 197.679 70.224 193.748 78.062 C 178.284 108.893,159.627 137.291,145.403 151.650 C 141.806 155.281,142.104 155.153,140.884 153.600 L 139.941 152.400 95.120 152.350 C 9.493 152.254,11.253 152.248,10.000 152.675 C 6.056 154.018,2.314 157.304,0.602 160.927 L -0.037 162.279 0.050 167.690 C 0.149 173.863,11.693 325.480,12.286 328.400 C 13.283 333.306,18.133 338.426,22.706 339.396 C 23.394 339.542,41.468 339.591,81.400 339.554 L 139.100 339.500 140.500 338.940 C 144.182 337.469,147.053 334.584,148.005 331.400 C 148.367 330.191,148.796 323.113,148.799 318.321 L 148.800 317.142 150.350 318.696 C 155.384 323.742,162.116 327.567,167.412 328.390 C 168.524 328.562,188.739 328.606,247.300 328.560 L 325.700 328.500 327.900 328.033 C 352.335 322.848,366.880 300.596,361.676 276.363 L 361.165 273.984 362.975 272.280 C 373.284 262.576,376.796 248.817,372.702 234.179 L 372.033 231.786 373.939 229.943 C 385.633 218.640,389.300 203.129,383.146 191.000 L 382.283 189.300 384.813 186.800 C 396.157 175.591,400.058 161.946,395.678 148.800 C 392.092 138.039,383.692 130.145,373.300 127.771 L 371.300 127.315 319.368 127.207 L 267.435 127.100 269.899 117.200 C 275.278 95.591,276.457 88.019,276.486 74.900 C 276.501 68.013,276.429 67.076,275.482 61.753 C 272.889 47.171,263.028 22.766,254.151 8.960 C 250.664 3.537,235.135 -0.895,223.513 0.215 M234.834 15.866 C 237.155 16.469,239.369 17.406,241.400 18.644 L 242.900 19.558 244.368 22.729 C 251.642 38.439,256.879 53.336,259.404 65.504 C 261.732 76.725,258.762 100.049,250.031 139.100 L 249.270 142.500 308.585 142.600 L 367.900 142.700 369.489 143.152 C 382.092 146.735,386.027 161.702,377.397 173.226 C 374.771 176.732,369.606 180.391,365.700 181.511 C 362.592 182.402,361.791 186.165,364.292 188.125 C 365.203 188.838,366.914 191.367,368.078 193.721 C 373.746 205.181,368.751 217.098,355.471 223.793 C 350.750 226.174,350.196 229.095,353.793 232.644 C 357.681 236.479,359.488 240.875,359.110 245.573 C 358.411 254.252,350.798 264.308,342.977 266.881 C 340.517 267.690,339.719 268.743,339.707 271.193 C 339.699 272.970,339.898 273.339,342.076 275.585 C 347.654 281.338,348.884 287.141,345.996 294.078 C 342.963 301.364,333.657 309.987,326.107 312.507 L 324.514 313.039 253.707 312.916 C 214.763 312.848,180.175 312.719,176.844 312.630 L 170.788 312.469 168.544 311.349 C 165.943 310.050,160.364 306.874,154.616 303.419 L 150.591 301.000 143.295 301.000 L 135.999 301.000 136.050 239.362 L 136.100 177.725 141.500 174.066 C 144.470 172.053,149.203 168.808,152.017 166.853 L 157.135 163.300 159.017 160.912 C 177.647 137.279,195.148 109.607,211.580 77.802 L 213.800 73.504 213.800 46.958 L 213.800 20.413 214.928 19.580 C 220.177 15.702,228.341 14.179,234.834 15.866 M121.200 192.067 C 121.200 204.973,121.260 240.118,121.333 270.167 L 121.466 324.800 74.133 324.800 C 48.100 324.800,26.800 324.733,26.800 324.650 C 26.800 324.568,24.145 289.717,20.900 247.205 C 17.655 204.693,15.000 169.615,15.000 169.255 L 15.000 168.600 68.100 168.600 L 121.200 168.600 121.200 192.067 M89.927 296.415 C 89.012 297.135,89.621 298.800,90.800 298.800 C 91.030 298.800,91.439 298.579,91.709 298.309 C 92.952 297.067,91.313 295.324,89.927 296.415 M94.635 296.463 C 93.398 297.779,95.233 299.586,96.509 298.309 C 96.779 298.039,97.000 297.630,97.000 297.400 C 97.000 296.265,95.412 295.636,94.635 296.463 M89.891 301.291 C 88.980 302.201,89.522 303.600,90.785 303.600 C 91.433 303.600,92.200 302.821,92.200 302.164 C 92.200 301.654,91.323 300.800,90.800 300.800 C 90.570 300.800,90.161 301.021,89.891 301.291 M94.691 301.291 C 93.780 302.201,94.322 303.600,95.585 303.600 C 96.233 303.600,97.000 302.821,97.000 302.164 C 97.000 301.654,96.123 300.800,95.600 300.800 C 95.370 300.800,94.961 301.021,94.691 301.291 " stroke="none" fill="#4d639b" fill-rule="evenodd"></path><path id="path1" d="M226.602 15.418 C 222.674 15.796,218.989 17.057,215.979 19.054 L 214.100 20.300 214.000 47.000 L 213.900 73.700 211.222 78.800 C 195.711 108.337,181.734 130.957,165.931 152.100 C 160.314 159.615,157.406 163.197,156.209 164.074 C 154.621 165.237,148.073 169.761,141.600 174.166 L 136.100 177.909 136.050 239.323 L 135.999 300.737 140.650 300.859 C 143.207 300.926,146.441 300.927,147.836 300.861 L 150.372 300.741 155.936 304.048 C 170.044 312.436,169.528 312.212,175.300 312.456 C 178.036 312.571,209.400 312.660,252.700 312.675 L 325.500 312.700 327.014 312.046 C 334.424 308.847,342.035 301.800,345.317 295.100 C 348.883 287.821,347.769 281.336,341.968 275.601 C 339.965 273.620,339.599 272.933,339.602 271.156 C 339.606 268.814,340.518 267.470,342.487 266.907 C 349.702 264.842,357.242 255.785,358.706 247.424 C 359.685 241.836,358.033 236.976,353.723 232.762 C 349.951 229.074,350.557 226.138,355.622 223.556 C 368.375 217.057,373.401 205.350,368.201 194.253 C 367.125 191.958,365.363 189.321,364.099 188.116 C 361.641 185.772,362.428 182.344,365.644 181.387 C 384.330 175.827,387.699 149.093,370.400 143.647 C 369.685 143.422,368.875 143.163,368.600 143.072 C 368.325 142.980,341.319 142.860,308.587 142.803 L 249.074 142.700 250.435 136.604 C 257.220 106.211,260.758 82.005,260.014 71.065 C 259.431 62.499,254.727 47.018,247.747 30.698 C 246.178 27.028,242.906 19.818,242.761 19.710 C 239.194 17.061,232.335 14.890,228.600 15.227 C 228.435 15.242,227.536 15.328,226.602 15.418 M91.590 288.803 C 82.673 290.187,79.151 300.892,85.497 307.322 C 92.379 314.296,104.226 309.349,104.197 299.513 C 104.178 293.057,98.001 287.808,91.590 288.803 M91.800 296.400 C 92.666 297.266,92.026 298.800,90.800 298.800 C 90.030 298.800,89.400 298.170,89.400 297.400 C 89.400 296.630,90.030 296.000,90.800 296.000 C 91.133 296.000,91.578 296.178,91.800 296.400 M96.600 296.400 C 97.448 297.248,96.830 298.800,95.645 298.800 C 94.725 298.800,94.200 298.291,94.200 297.400 C 94.200 296.119,95.696 295.496,96.600 296.400 M91.737 301.235 C 92.653 302.095,92.069 303.667,90.834 303.667 C 89.980 303.667,89.400 303.102,89.400 302.269 C 89.400 300.954,90.786 300.341,91.737 301.235 M96.537 301.235 C 97.453 302.095,96.869 303.667,95.634 303.667 C 94.780 303.667,94.200 303.102,94.200 302.269 C 94.200 300.954,95.586 300.341,96.537 301.235 " stroke="none" fill="#e7efef" fill-rule="evenodd"></path><path id="path2" d="M263.450 142.750 C 270.903 142.779,283.098 142.779,290.550 142.750 C 298.002 142.721,291.905 142.697,277.000 142.697 C 262.095 142.697,255.998 142.721,263.450 142.750 M358.950 142.749 C 360.408 142.784,362.793 142.784,364.250 142.749 C 365.707 142.715,364.515 142.687,361.600 142.687 C 358.685 142.687,357.493 142.715,358.950 142.749 M15.000 168.864 C 15.000 169.010,15.404 174.387,15.897 180.814 C 16.390 187.241,18.054 209.015,19.593 229.200 C 21.133 249.385,23.384 278.894,24.596 294.776 C 25.808 310.657,26.800 323.865,26.800 324.126 L 26.800 324.600 74.064 324.600 L 121.328 324.600 121.261 248.650 C 121.224 206.877,121.141 171.778,121.078 170.650 L 120.962 168.600 67.981 168.600 C 24.197 168.600,15.000 168.646,15.000 168.864 M110.400 252.500 L 110.400 315.200 73.700 315.200 C 53.515 315.200,37.000 315.132,37.000 315.050 C 37.000 314.968,36.732 311.750,36.404 307.900 C 36.076 304.050,35.535 297.660,35.200 293.700 C 33.723 276.212,32.592 262.925,32.400 260.800 C 32.286 259.535,31.787 253.685,31.291 247.800 C 29.779 229.858,29.214 223.204,28.999 220.800 C 28.886 219.535,28.388 213.685,27.893 207.800 C 27.398 201.915,26.860 195.588,26.697 193.740 C 26.534 191.893,26.400 190.250,26.400 190.090 C 26.400 189.837,31.821 189.800,68.400 189.800 L 110.400 189.800 110.400 252.500 M351.450 228.700 C 351.453 229.140,351.494 229.296,351.541 229.048 C 351.589 228.799,351.587 228.439,351.537 228.248 C 351.487 228.056,351.448 228.260,351.450 228.700 M359.060 244.400 C 359.060 245.005,359.097 245.253,359.143 244.950 C 359.189 244.648,359.189 244.153,359.143 243.850 C 359.097 243.548,359.060 243.795,359.060 244.400 M350.789 261.750 L 350.100 262.500 350.850 261.811 C 351.548 261.169,351.692 261.000,351.539 261.000 C 351.506 261.000,351.168 261.338,350.789 261.750 M85.291 291.850 L 84.500 292.700 85.350 291.909 C 86.140 291.174,86.292 291.000,86.141 291.000 C 86.108 291.000,85.725 291.382,85.291 291.850 M100.992 291.850 C 101.482 292.373,101.910 292.800,101.942 292.800 C 102.092 292.800,101.933 292.620,101.050 291.792 L 100.100 290.900 100.992 291.850 M104.250 299.700 C 104.253 300.140,104.294 300.296,104.341 300.048 C 104.389 299.799,104.387 299.439,104.337 299.248 C 104.287 299.056,104.248 299.260,104.250 299.700 M173.050 312.538 C 173.243 312.588,173.558 312.588,173.750 312.538 C 173.942 312.488,173.785 312.446,173.400 312.446 C 173.015 312.446,172.858 312.488,173.050 312.538 M184.350 312.747 C 184.928 312.788,185.873 312.788,186.450 312.747 C 187.028 312.707,186.555 312.674,185.400 312.674 C 184.245 312.674,183.773 312.707,184.350 312.747 M243.137 312.950 C 245.028 312.982,248.178 312.983,250.137 312.950 C 252.097 312.917,250.550 312.890,246.700 312.890 C 242.850 312.890,241.247 312.917,243.137 312.950 M288.040 312.949 C 288.997 312.985,290.617 312.986,291.640 312.949 C 292.663 312.913,291.880 312.883,289.900 312.883 C 287.920 312.882,287.083 312.912,288.040 312.949 " stroke="none" fill="#6c7cb4" fill-rule="evenodd"></path><path id="path3" d="M308.050 142.750 C 310.332 142.782,314.068 142.782,316.350 142.750 C 318.632 142.718,316.765 142.691,312.200 142.691 C 307.635 142.691,305.768 142.718,308.050 142.750 M121.060 169.600 C 121.060 170.205,121.097 170.453,121.143 170.150 C 121.189 169.847,121.189 169.353,121.143 169.050 C 121.097 168.748,121.060 168.995,121.060 169.600 M26.400 190.090 C 26.400 190.250,26.534 191.893,26.697 193.740 C 26.860 195.588,27.398 201.915,27.893 207.800 C 28.388 213.685,28.886 219.535,28.999 220.800 C 29.214 223.204,29.779 229.858,31.291 247.800 C 31.787 253.685,32.286 259.535,32.400 260.800 C 32.592 262.925,33.723 276.212,35.200 293.700 C 35.535 297.660,36.076 304.050,36.404 307.900 C 36.732 311.750,37.000 314.968,37.000 315.050 C 37.000 315.132,53.515 315.200,73.700 315.200 L 110.400 315.200 110.400 252.500 L 110.400 189.800 68.400 189.800 C 31.821 189.800,26.400 189.837,26.400 190.090 M121.297 274.200 C 121.297 286.465,121.321 291.483,121.350 285.350 C 121.379 279.218,121.379 269.183,121.350 263.050 C 121.321 256.918,121.297 261.935,121.297 274.200 M95.991 288.895 C 104.241 291.091,107.105 301.559,101.078 307.492 C 93.978 314.482,82.134 309.497,82.173 299.535 C 82.202 292.360,89.088 287.058,95.991 288.895 M181.754 312.745 C 182.113 312.789,182.653 312.789,182.954 312.743 C 183.254 312.697,182.960 312.661,182.300 312.662 C 181.640 312.663,181.394 312.700,181.754 312.745 M222.650 312.950 C 225.812 312.981,230.987 312.981,234.150 312.950 C 237.313 312.919,234.725 312.894,228.400 312.894 C 222.075 312.894,219.488 312.919,222.650 312.950 M259.950 312.950 C 263.498 312.981,269.303 312.981,272.850 312.950 C 276.397 312.919,273.495 312.894,266.400 312.894 C 259.305 312.894,256.403 312.919,259.950 312.950 M50.466 324.750 C 63.537 324.778,84.867 324.778,97.866 324.750 C 110.865 324.722,100.170 324.698,74.100 324.698 C 48.030 324.698,37.395 324.722,50.466 324.750 " stroke="none" fill="#647ca6" fill-rule="evenodd"></path><path id="path4" d="M230.050 15.338 C 230.243 15.388,230.558 15.388,230.750 15.338 C 230.943 15.288,230.785 15.246,230.400 15.246 C 230.015 15.246,229.857 15.288,230.050 15.338 M213.892 20.450 C 213.840 20.588,213.820 32.625,213.849 47.200 L 213.900 73.700 214.000 46.950 C 214.055 32.237,214.075 20.200,214.044 20.200 C 214.013 20.200,213.945 20.313,213.892 20.450 M260.057 71.700 C 260.059 72.250,260.098 72.451,260.144 72.147 C 260.189 71.843,260.188 71.393,260.141 71.147 C 260.093 70.901,260.056 71.150,260.057 71.700 M260.057 76.500 C 260.059 77.050,260.098 77.251,260.144 76.947 C 260.189 76.643,260.188 76.193,260.141 75.947 C 260.093 75.701,260.056 75.950,260.057 76.500 M259.846 80.000 C 259.846 80.385,259.888 80.543,259.938 80.350 C 259.988 80.158,259.988 79.843,259.938 79.650 C 259.888 79.458,259.846 79.615,259.846 80.000 M329.565 142.750 C 334.551 142.780,342.651 142.780,347.565 142.750 C 352.479 142.720,348.400 142.696,338.500 142.696 C 328.600 142.696,324.579 142.720,329.565 142.750 M381.862 159.900 C 381.863 160.560,381.900 160.806,381.945 160.446 C 381.989 160.087,381.989 159.547,381.943 159.246 C 381.897 158.946,381.861 159.240,381.862 159.900 M375.291 175.450 L 374.500 176.300 375.350 175.509 C 376.140 174.774,376.292 174.600,376.141 174.600 C 376.108 174.600,375.725 174.983,375.291 175.450 M370.264 203.000 C 370.264 203.715,370.300 204.008,370.345 203.650 C 370.389 203.293,370.389 202.708,370.345 202.350 C 370.300 201.993,370.264 202.285,370.264 203.000 M363.695 217.850 L 362.300 219.300 363.750 217.905 C 365.097 216.610,365.291 216.400,365.145 216.400 C 365.114 216.400,364.462 217.053,363.695 217.850 M137.660 300.949 C 138.628 300.986,140.158 300.986,141.060 300.949 C 141.962 300.912,141.170 300.882,139.300 300.882 C 137.430 300.882,136.692 300.912,137.660 300.949 M147.757 300.948 C 148.338 300.988,149.238 300.988,149.757 300.947 C 150.276 300.906,149.800 300.873,148.700 300.873 C 147.600 300.874,147.176 300.907,147.757 300.948 M339.092 303.650 L 338.100 304.700 339.150 303.708 C 340.126 302.785,340.292 302.600,340.142 302.600 C 340.111 302.600,339.638 303.072,339.092 303.650 M85.400 307.500 C 85.773 307.885,86.123 308.200,86.178 308.200 C 86.233 308.200,85.973 307.885,85.600 307.500 C 85.227 307.115,84.877 306.800,84.822 306.800 C 84.767 306.800,85.027 307.115,85.400 307.500 M174.856 312.547 C 175.382 312.589,176.192 312.588,176.656 312.546 C 177.120 312.504,176.690 312.470,175.700 312.471 C 174.710 312.472,174.330 312.506,174.856 312.547 M190.737 312.750 C 192.628 312.782,195.778 312.783,197.737 312.750 C 199.697 312.717,198.150 312.690,194.300 312.690 C 190.450 312.690,188.847 312.717,190.737 312.750 M301.165 312.950 C 305.491 312.980,312.511 312.980,316.765 312.950 C 321.019 312.920,317.480 312.895,308.900 312.895 C 300.320 312.895,296.839 312.920,301.165 312.950 " stroke="none" fill="#bac6d6" fill-rule="evenodd"></path></g></svg>